<?xml version="1.0" encoding="UTF-8" standalone="no"?>
<!-- Created with Inkscape (http://www.inkscape.org/) -->

<svg
   width="500"
   height="700"
   viewBox="0 0 132.29166 185.20833"
   version="1.1"
   id="svg1"
   xml:space="preserve"
   inkscape:version="1.4.2 (ebf0e940d0, 2025-05-08)"
   sodipodi:docname="docs.svg"
   inkscape:export-filename="./docs.png"
   inkscape:export-xdpi="96"
   inkscape:export-ydpi="96"
   xmlns:inkscape="http://www.inkscape.org/namespaces/inkscape"
   xmlns:sodipodi="http://sodipodi.sourceforge.net/DTD/sodipodi-0.dtd"
   xmlns:xlink="http://www.w3.org/1999/xlink"
   xmlns="http://www.w3.org/2000/svg"
   xmlns:svg="http://www.w3.org/2000/svg"><sodipodi:namedview
     id="namedview1"
     pagecolor="#505050"
     bordercolor="#eeeeee"
     borderopacity="1"
     inkscape:showpageshadow="0"
     inkscape:pageopacity="0"
     inkscape:pagecheckerboard="0"
     inkscape:deskcolor="#505050"
     inkscape:document-units="mm"
     inkscape:zoom="0.73008676"
     inkscape:cx="240.38239"
     inkscape:cy="391.04941"
     inkscape:window-width="1419"
     inkscape:window-height="1080"
     inkscape:window-x="0"
     inkscape:window-y="0"
     inkscape:window-maximized="0"
     inkscape:current-layer="layer2" /><defs
     id="defs1"><inkscape:path-effect
       effect="bend_path"
       id="path-effect1"
       is_visible="true"
       lpeversion="1"
       bendpath="m 4.032975,38.615492 c 39.967897,-29.1630286 85.558042,-25.178689 122.160285,0"
       prop_scale="1.1622062"
       scale_y_rel="false"
       vertical="false"
       hide_knot="false"
       bendpath-nodetypes="cc" /></defs><g
     inkscape:label="Layer 1"
     inkscape:groupmode="layer"
     id="layer1"><image
       preserveAspectRatio="none"
       inkscape:svg-dpi="96"
       width="132.29167"
       height="132.29167"
       xlink:href="godotGemLogo.svg"
       id="image1"
       x="7.1054274e-15"
       y="52.91666" /></g><g
     inkscape:groupmode="layer"
     id="layer2"
     inkscape:label="confetti"><rect
       style="fill:#ff3131;fill-opacity:1;stroke:none;stroke-width:5.29167;stroke-linecap:round;stroke-linejoin:round;stroke-dasharray:none;stroke-opacity:1;paint-order:stroke fill markers"
       id="rect1"
       width="17.032791"
       height="9.0599957"
       x="-34.811283"
       y="15.701309"
       transform="rotate(-90)" /><rect
       style="fill:#ffb131;fill-opacity:1;stroke:none;stroke-width:5.29167;stroke-linecap:round;stroke-linejoin:round;stroke-dasharray:none;stroke-opacity:1;paint-order:stroke fill markers"
       id="rect2"
       width="17.032791"
       height="9.0599957"
       x="-87.499947"
       y="75.334969"
       transform="rotate(-120)" /><rect
       style="fill:#fffb31;fill-opacity:1;stroke:none;stroke-width:7.87767;stroke-linecap:round;stroke-linejoin:round;stroke-dasharray:none;stroke-opacity:1;paint-order:stroke fill markers"
       id="rect3"
       width="25.356588"
       height="13.487548"
       x="11.990967"
       y="44.861847"
       transform="rotate(-45)" /><rect
       style="fill:#63ff31;fill-opacity:1;stroke:none;stroke-width:4.59606;stroke-linecap:round;stroke-linejoin:round;stroke-dasharray:none;stroke-opacity:1;paint-order:stroke fill markers"
       id="rect4"
       width="14.793765"
       height="7.8690243"
       x="-29.31414"
       y="-96.660477"
       transform="rotate(120)" /><rect
       style="fill:#31d0ff;fill-opacity:1;stroke:none;stroke-width:4.59606;stroke-linecap:round;stroke-linejoin:round;stroke-dasharray:none;stroke-opacity:1;paint-order:stroke fill markers"
       id="rect5"
       width="14.793765"
       height="7.8690243"
       x="17.815628"
       y="37.547298"
       transform="rotate(-15)" /><rect
       style="fill:#dd31ff;fill-opacity:1;stroke:none;stroke-width:7.87767;stroke-linecap:round;stroke-linejoin:round;stroke-dasharray:none;stroke-opacity:1;paint-order:stroke fill markers"
       id="rect6"
       width="25.356588"
       height="13.487548"
       x="-26.172901"
       y="71.093201"
       transform="rotate(-75)" /></g><g
     inkscape:groupmode="layer"
     id="layer3"
     inkscape:label="docs"><path
       d="m -5.8766391,25.243556 c 3.4958187,-2.573632 7.1308893,-4.965881 10.8860586,-7.162315 2.5349456,-1.482714 4.6410472,-2.350333 6.1941225,-2.674256 2.10153,-0.432722 4.13991,-0.272976 6.062678,0.458894 1.925186,0.732792 3.631921,1.953934 5.133633,3.633952 1.499934,1.670773 2.815999,3.946974 4.020894,6.829198 1.054588,2.522676 1.681984,4.830766 1.925084,6.878244 0.296917,2.504778 0.185547,4.702724 -0.312442,6.585591 -0.375322,1.429098 -1.118298,2.768113 -2.214411,4.049274 -0.825809,0.956139 -2.076228,1.885393 -3.760166,2.86078 -2.856269,1.654434 -5.63079,3.457212 -8.302661,5.392586 z m 8.924668,0.667483 11.9992611,18.506149 c 1.166246,-0.753731 2.348096,-1.483687 3.544243,-2.188886 1.346185,-0.793655 2.271031,-1.421833 2.781641,-1.943624 0.665691,-0.673491 1.115817,-1.431746 1.350481,-2.286176 0.24559,-0.858813 0.212979,-2.040134 -0.09361,-3.544551 -0.312265,-1.512824 -1.026796,-3.444024 -2.156977,-5.751201 -1.13493,-2.316873 -2.1899,-3.99047 -3.202999,-5.032348 -1.009641,-1.03832 -2.055289,-1.715984 -3.137646,-2.027166 -1.080899,-0.310763 -2.253764,-0.284017 -3.50048,0.09153 -0.9158474,0.26748 -2.6395251,1.09348 -4.9939154,2.539423 -0.8704919,0.53461 -1.7339193,1.080299 -2.5899977,1.636852 z m 27.0377261,-1.15598 c -1.190273,-3.179017 -1.743654,-5.99721 -1.570774,-8.508945 0.135897,-1.847567 0.621091,-3.628091 1.481847,-5.324288 0.875838,-1.7014261 2.032499,-3.1019442 3.448832,-4.179568 1.87839,-1.4434263 4.274274,-2.5157387 7.131527,-3.1292799 5.187906,-1.114005 9.675978,-0.166977 13.020606,2.5317236 3.396059,2.7258053 5.022324,6.8538693 5.336511,12.2560133 0.309531,5.322084 -0.758279,9.624859 -2.740556,12.83429 -2.011547,3.239319 -4.664291,5.106244 -8.280749,5.897175 -3.663876,0.801302 -6.91535,0.236357 -10.109566,-1.877622 -3.161654,-2.103538 -5.86727,-5.557374 -7.717678,-10.499499 z m 5.95869,-2.265501 c 1.098126,3.588215 2.694706,6.102193 4.619118,7.569068 1.935986,1.464253 3.898937,1.94292 6.023128,1.480154 2.123765,-0.462673 3.692083,-1.702411 4.820483,-3.81328 1.127871,-2.107528 1.53711,-5.092076 1.055131,-8.894165 -0.478889,-3.777723 -1.612571,-6.481401 -3.568913,-8.090444 -1.9258,-1.5984948 -4.352651,-2.1435244 -7.134944,-1.5462207 -2.782255,0.5972956 -4.773958,2.1061917 -5.886467,4.3915827 -1.124721,2.287396 -1.048197,5.241453 0.07246,8.903305 z m 46.314014,1.923631 c 1.740835,1.04646 3.433493,2.140739 5.078175,3.278097 -1.739846,3.284957 -3.717823,5.577486 -5.876506,6.910782 -2.158885,1.330335 -4.502856,1.770149 -7.193317,1.423521 -3.321725,-0.427957 -5.908263,-2.058782 -8.101645,-5.115634 -0.06229,-0.08725 -0.123838,-0.175318 -0.184648,-0.264194 0,0 0,0 0,0 -2.03971,-3.035559 -3.321583,-7.080263 -3.409335,-12.136914 -0.09305,-5.361997 1.087967,-9.579654 3.996515,-12.5847941 0,10e-8 0,-5e-7 0,-5e-7 0.09184,-0.094542 0.185313,-0.1877249 0.280422,-0.2795397 3.063608,-2.9722122 7.298983,-4.255705 12.293371,-3.58002 4.356422,0.5893752 7.641072,2.4791751 9.683239,5.3939036 1.222471,1.732248 1.850493,3.9864637 1.908293,6.7469857 -2.2454,-0.03059 -4.478025,0.0057 -6.693476,0.109389 -0.04342,-1.761254 -0.589543,-3.252573 -1.667856,-4.4498843 -1.062752,-1.194123 -2.522325,-1.932681 -4.338159,-2.1721665 -2.511331,-0.3312127 -4.664427,0.3588146 -6.338866,2.002141 -1.673694,1.6587448 -2.537974,4.4645548 -2.743757,8.4283198 -0.216966,4.179176 0.310291,7.230456 1.429448,9.077022 1.132345,1.868325 2.623071,2.889907 4.57219,3.140922 1.43925,0.185352 2.753725,-0.178671 4.000587,-1.111417 1.241864,-0.929007 2.350026,-2.533268 3.305325,-4.816519 z m 8.651223,3.591569 c 1.880768,0.338437 3.760545,0.731123 5.63627,1.176365 -0.409425,2.180029 -0.316118,3.932029 0.257869,5.247738 0.588316,1.3258 1.649614,2.294143 3.210739,2.958717 1.65434,0.704251 3.06598,0.858974 4.28661,0.426651 1.23536,-0.439448 2.13514,-1.195934 2.67115,-2.301135 0.344,-0.709318 0.45123,-1.39863 0.31212,-2.070693 -0.12023,-0.678529 -0.55766,-1.425684 -1.32525,-2.22532 -0.49738,-0.50908 -1.82241,-1.680472 -3.87632,-3.252556 -2.692996,-2.057957 -4.514635,-3.830364 -5.389202,-5.502176 -1.222927,-2.339206 -1.526275,-4.750967 -0.754418,-7.264868 0.496718,-1.617786 1.411713,-2.992035 2.79262,-4.093209 1.39872,-1.1095928 3.13036,-1.7317576 5.17899,-1.8235473 2.06028,-0.086311 4.38124,0.3714858 6.88286,1.4130313 4.08922,1.70254 6.69116,4.013393 7.79627,6.623928 1.12647,2.635064 0.92696,5.320675 -0.43765,8.062637 -1.97294,-0.954801 -3.96959,-1.858155 -5.98708,-2.707789 0.48265,-1.667758 0.45038,-3.040033 -0.11317,-4.115624 -0.54127,-1.078899 -1.7004,-2.017787 -3.47374,-2.756424 -1.83027,-0.762354 -3.43293,-0.945699 -4.75515,-0.584781 -0.85262,0.231168 -1.4213,0.758084 -1.71773,1.567761 -0.27059,0.739083 -0.19243,1.483031 0.21766,2.233834 0.5317,0.971214 2.11665,2.330843 4.68976,4.288208 2.5515,1.940932 4.26569,3.689747 5.18983,5.07772 0.95134,1.392379 1.43169,2.924785 1.45508,4.571925 0.0428,1.643714 -0.46465,3.377089 -1.48094,5.22511 -0.92043,1.67372 -2.18453,3.017427 -3.7462,4.073733 -1.56137,1.056098 -3.21187,1.595156 -4.96039,1.645053 -1.7476,0.03643 -3.627697,-0.410035 -5.719401,-1.301989 -3.037027,-1.295064 -5.06148,-3.041566 -6.167837,-5.460775 -1.091931,-2.412292 -1.35979,-5.468307 -0.67335,-9.131525 z m 26.756998,14.700298 c 2.6047,-5.018194 5.15052,-10.07224 7.63621,-15.160858 l 4.0927,-6.661016 c 2.04798,1.265108 4.05916,2.582948 6.03085,3.950675 l -4.41853,6.434908 c -3.62753,4.333821 -7.20324,8.710559 -10.72581,13.129046 -0.86433,-0.575351 -1.73626,-1.139738 -2.61542,-1.692755 z m -5.52681,6.678532 3.354,-5.434138 c 1.53428,0.94297 3.0473,1.921144 4.53694,2.932274 l -3.59999,5.263389 c -1.41008,-0.951901 -2.84111,-1.873159 -4.29095,-2.761525 z"
       id="text1"
       style="font-weight:bold;font-size:39.9847px;font-family:Arial;-inkscape-font-specification:'Arial Bold';text-align:center;text-anchor:middle;fill:#ffffff;stroke:#000000;stroke-width:5.29167;stroke-linecap:round;stroke-linejoin:round;paint-order:stroke fill markers"
       aria-label="DOCS!"
       inkscape:path-effect="#path-effect1"
       inkscape:original-d="m 4.032975,24.2948 h 10.562364 q 3.572852,0 5.447135,0.546666 2.518567,0.741904 4.314755,2.63571 1.796188,1.893807 2.733329,4.64666 0.937141,2.733329 0.937141,6.755227 0,3.533804 -0.87857,6.091419 -1.073808,3.123805 -3.065233,5.056659 -1.503331,1.464283 -4.060946,2.284282 -1.91333,0.605237 -5.11523,0.605237 H 4.032975 Z m 5.7790386,4.841898 v 18.957589 h 4.3147554 q 2.420948,0 3.494756,-0.273333 1.405712,-0.351428 2.32333,-1.190951 0.937141,-0.839522 1.522855,-2.752852 0.585713,-1.932854 0.585713,-5.251897 0,-3.319042 -0.585713,-5.095706 -0.585714,-1.776664 -1.639998,-2.772377 -1.054284,-0.995713 -2.674758,-1.347141 -1.210474,-0.273332 -4.744278,-0.273332 z m 21.9447284,9.644746 q 0,-4.373326 1.308093,-7.340941 0.976189,-2.186663 2.655234,-3.924279 1.698568,-1.737616 3.709518,-2.577139 2.674757,-1.132379 6.169514,-1.132379 6.325704,0 10.113317,3.924279 3.807137,3.92428 3.807137,10.913793 0,6.930941 -3.768089,10.855221 -3.768089,3.904756 -10.07427,3.904756 -6.384276,0 -10.152365,-3.885232 -3.768089,-3.904756 -3.768089,-10.738079 z m 5.954752,-0.195237 q 0,4.861421 2.245235,7.379988 2.245234,2.499044 5.700943,2.499044 3.455709,0 5.661896,-2.47952 2.225711,-2.499044 2.225711,-7.477608 0,-4.919992 -2.16714,-7.34094 -2.147615,-2.420949 -5.720467,-2.420949 -3.572851,0 -5.759515,2.459996 -2.186663,2.440473 -2.186663,7.379989 z m 44.63136,3.807136 5.603325,1.776664 q -1.28857,4.685707 -4.295232,6.969989 -2.987138,2.264759 -7.59475,2.264759 -5.700943,0 -9.371413,-3.885232 -3.670471,-3.904756 -3.670471,-10.659984 0,-7.145703 3.689994,-11.089506 3.689994,-3.963327 9.703318,-3.963327 5.251897,0 8.531892,3.104281 1.952378,1.835235 2.928567,5.27142 l -5.720468,1.366665 q -0.507618,-2.225711 -2.128091,-3.514281 -1.60095,-1.288569 -3.904756,-1.288569 -3.182376,0 -5.173802,2.284282 -1.971901,2.284282 -1.971901,7.399512 0,5.427611 1.952378,7.731417 1.952377,2.303806 5.076182,2.303806 2.303806,0 3.963327,-1.464284 1.659521,-1.464283 2.381901,-4.607612 z m 9.098084,1.210475 5.622848,-0.546666 q 0.507618,2.830948 2.049997,4.158565 1.561897,1.327617 4.197617,1.327617 2.7919,0 4.19761,-1.171427 1.42523,-1.19095 1.42523,-2.772377 0,-1.015236 -0.60523,-1.718092 -0.58572,-0.72238 -2.06952,-1.249522 -1.01524,-0.351428 -4.62714,-1.249522 -4.646659,-1.151903 -6.520942,-2.830948 -2.63571,-2.362377 -2.63571,-5.759514 0,-2.186664 1.229998,-4.08047 1.249522,-1.913331 3.572851,-2.909043 2.342854,-0.995713 5.642373,-0.995713 5.38856,0 8.10237,2.362377 2.73333,2.362377 2.86999,6.306181 l -5.77904,0.253809 q -0.37095,-2.206187 -1.60095,-3.162852 -1.21047,-0.976189 -3.65094,-0.976189 -2.51857,0 -3.943805,1.03476 -0.917618,0.663809 -0.917618,1.776664 0,1.015236 0.859047,1.737616 1.093331,0.917618 5.310466,1.913331 4.21714,0.995712 6.22809,2.06952 2.03047,1.054284 3.16285,2.909043 1.1519,1.835235 1.1519,4.549041 0,2.459996 -1.36666,4.607612 -1.36667,2.147615 -3.86571,3.201899 -2.49904,1.034761 -6.22809,1.034761 -5.427607,0 -8.33665,-2.499044 -2.909043,-2.518568 -3.475232,-7.321417 z M 121.68327,45.536672 120.25803,31.01098 V 24.2948 h 5.93523 v 6.71618 l -1.40571,14.525692 z m -1.19095,7.379988 v -5.486182 h 5.48618 v 5.486182 z"
       transform="matrix(0.7390043,0,0,0.7390043,19.09342,26.921984)" /></g></svg>
